:SAMPLES-PER-SECOND 30
:FULLY-SPECIFIED
:DEGREES
1
root  78.7363 40.4286 -2.02012 -156.889 -87.8432 156.627
RightUpLeg  1.82666 -9.14798 -8.31695
RightLeg  2.25192 -3.38155 2.99736
RightFoot  -1.66207 -0.159465 1.70192
RightToes  5.82063e-011 0 -3.6325e-017
Spine  -0.876709 -1.20827 0.123172
Spine1  4.23921 -1.40041 0.638361
HEad  -2.56935 4.19492 -3.00145
LeftShoulder1  1.16018 -2.43827 -12.3644
LeftArm  -13.6496 7.38248 4.60195
LeftForeArm  11.5021 -2.184 -3.28848
LeftHand  -0.244104 0.0205437 5.32207
RightShoulder  0.546483 -0.0834339 8.53762
RightArm  -22.2644 5.72193 -2.15651
RightForeArm  0.310076 0.0295442 3.22193
RightHand  -0.799044 1.61252 -13.376
LeftUpLeg  2.58797 5.83645 4.71722
LeftLeg  0.634431 9.10735 -3.92294
LeftFoot  -2.0175 0.179235 -2.10761
LeftToes  3.81955e-011 1.3492e-010 1.36421e-011
2
root  78.7363 40.4286 -2.00864 -157.752 -87.7898 157.464
RightUpLeg  1.82738 -9.12226 -8.31206
RightLeg  2.27485 -3.34244 2.96319
RightFoot  -1.66205 -0.161118 1.72756
RightToes  5.82063e-011 0 -3.6325e-017
Spine  -0.433744 -1.17877 0.182839
Spine1  3.65619 -1.35743 0.592524
HEad  -2.32545 4.13502 -2.97702
LeftShoulder1  1.1486 -2.39628 -12.2989
LeftArm  -13.6736 7.38435 4.54375
LeftForeArm  11.6316 -2.17358 -3.27295
LeftHand  -0.244104 0.0205437 5.32207
RightShoulder  0.525455 -0.203674 8.47589
RightArm  -22.0744 5.73819 -2.11269
RightForeArm  0.0102653 0.084642 3.3149
RightHand  -0.815397 1.71114 -13.463
LeftUpLeg  2.63036 5.85056 4.71634
LeftLeg  0.634414 9.14957 -3.93707
LeftFoot  -2.0483 0.179259 -2.10799
LeftToes  3.81955e-011 1.3492e-010 1.36421e-011
3
root  78.736 40.4285 -1.98792 -158.7 -87.7063 158.412
RightUpLeg  1.77285 -9.06629 -8.30067
RightLeg  2.33026 -3.30253 2.88722
RightFoot  -1.66202 -0.164792 1.78456
RightToes  5.82063e-011 0 -3.6325e-017
Spine  0.0991972 -1.11451 0.299437
Spine1  2.90169 -1.25141 0.41805
HEad  -2.02688 3.94456 -2.83825
LeftShoulder1  1.14587 -2.43233 -12.137
LeftArm  -13.5362 7.37267 4.49033
LeftForeArm  11.6506 -2.12873 -3.32463
LeftHand  -0.244104 0.0205437 5.32207
RightShoulder  0.504425 -0.353731 8.57693
RightArm  -21.8323 5.69309 -2.22148
RightForeArm  -0.0668296 0.18184 3.41371
RightHand  -0.848567 2.00728 -13.4633
LeftUpLeg  2.64353 5.86345 4.70052
LeftLeg  0.640443 9.22956 -3.96204
LeftFoot  -2.07367 0.177957 -2.08774
LeftToes  3.81955e-011 1.3492e-010 1.36421e-011
4
root  78.7343 40.4285 -1.9687 -158.901 -87.6373 158.645
RightUpLeg  1.69416 -9.03184 -8.31217
RightLeg  2.37693 -3.26387 2.82791
RightFoot  -1.66123 -0.168528 1.84254
RightToes  5.82063e-011 0 -3.6325e-017
Spine  0.328022 -1.06135 0.379119
Spine1  2.52864 -1.15086 0.203737
HEad  -1.82484 3.90651 -2.60734
LeftShoulder1  1.14675 -2.51343 -11.9129
LeftArm  -13.392 7.37849 4.44159
LeftForeArm  11.6472 -2.10542 -3.37967
LeftHand  -0.244104 0.0205437 5.32207
RightShoulder  0.502052 -0.422715 8.88946
RightArm  -21.713 5.65597 -2.5145
RightForeArm  0.250382 0.238861 3.44346
RightHand  -0.866638 2.25855 -13.3108
LeftUpLeg  2.61085 5.85231 4.65083
LeftLeg  0.656174 9.32854 -3.97534
LeftFoot  -2.07586 0.172228 -1.99865
LeftToes  3.81955e-011 1.3492e-010 1.36421e-011
5
root  78.7307 40.4286 -1.95457 -158.913 -87.5762 158.685
RightUpLeg  1.6512 -9.04411 -8.34982
RightLeg  2.3842 -3.19308 2.82033
RightFoot  -1.6543 -0.17006 1.8663
RightToes  5.82063e-011 0 -3.6325e-017
Spine  0.312012 -1.03537 0.351296
Spine1  2.53349 -1.11437 0.162213
HEad  -1.71697 4.0628 -2.4712
LeftShoulder1  1.14799 -2.53409 -11.8004
LeftArm  -13.5352 7.41546 4.37658
LeftForeArm  11.8969 -2.16302 -3.31345
LeftHand  -0.244104 0.0205437 5.32207
RightShoulder  0.504511 -0.44489 9.11121
RightArm  -21.7016 5.73236 -2.73127
RightForeArm  0.528385 0.2429 3.44339
RightHand  -0.873078 2.36866 -13.2256
LeftUpLeg  2.59464 5.82086 4.59267
LeftLeg  0.648273 9.43126 -3.9714
LeftFoot  -2.07913 0.167789 -1.92964
LeftToes  3.81955e-011 1.3492e-010 1.36421e-011
6
root  78.726 40.4285 -1.9415 -159.053 -87.5175 158.817
RightUpLeg  1.66496 -9.07815 -8.39846
RightLeg  2.36396 -3.10438 2.8338
RightFoot  -1.63633 -0.16972 1.86103
RightToes  5.82063e-011 0 -3.6325e-017
Spine  0.278229 -1.0181 0.27632
Spine1  2.63765 -1.11812 0.273413
HEad  -1.72015 4.09732 -2.48997
LeftShoulder1  1.15448 -2.54712 -11.8775
LeftArm  -13.7923 7.45384 4.33859
LeftForeArm  12.2085 -2.22841 -3.19865
LeftHand  -0.244104 0.0205437 5.32207
RightShoulder  0.493617 -0.503619 9.06532
RightArm  -21.7168 5.86665 -2.67976
RightForeArm  0.512959 0.244707 3.45587
RightHand  -0.897181 2.49738 -13.3702
LeftUpLeg  2.64049 5.78407 4.54472
LeftLeg  0.591616 9.5148 -3.96524
LeftFoot  -2.08786 0.170475 -1.9714
LeftToes  3.81955e-011 1.3492e-010 1.36421e-011
7
root  78.721 40.4281 -1.92382 -158.791 -87.4863 158.508
RightUpLeg  1.72548 -9.11405 -8.46499
RightLeg  2.34894 -3.03246 2.83416
RightFoot  -1.62397 -0.169945 1.86452
RightToes  5.82063e-011 0 -3.6325e-017
Spine  0.325758 -1.01129 0.265432
Spine1  2.68644 -1.11889 0.312503
HEad  -1.84246 3.95133 -2.48591
LeftShoulder1  1.18138 -2.65423 -11.9959
LeftArm  -13.8334 7.51758 4.35018
LeftForeArm  12.1574 -2.22745 -3.17218
LeftHand  -0.244104 0.0205437 5.32207
RightShoulder  0.475351 -0.591714 8.92093
RightArm  -21.7765 5.94316 -2.47016
RightForeArm  0.494452 0.250214 3.44353
RightHand  -0.912808 2.54898 -13.5137
LeftUpLeg  2.72558 5.7497 4.4918
LeftLeg  0.536486 9.56282 -3.96528
LeftFoot  -2.0986 0.175261 -2.04582
LeftToes  3.81955e-011 1.3492e-010 1.36421e-011
8
root  78.7173 40.4268 -1.89934 -158.176 -87.4877 157.83
RightUpLeg  1.8021 -9.1715 -8.56152
RightLeg  2.35622 -2.95668 2.84951
RightFoot  -1.62577 -0.171637 1.89077
RightToes  5.82063e-011 0 -3.6325e-017
Spine  0.445582 -1.0322 0.288406
Spine1  2.66838 -1.13914 0.306061
HEad  -2.01636 3.86036 -2.40189
LeftShoulder1  1.20081 -2.73495 -12.0672
LeftArm  -14.0065 7.69539 4.2473
LeftForeArm  11.8904 -2.36322 -3.10105
LeftHand  -0.244104 0.0205437 5.32207
RightShoulder  0.469041 -0.622411 8.8703
RightArm  -22.0223 5.94703 -2.32222
RightForeArm  0.956217 0.302496 3.33519
RightHand  -0.875315 2.31562 -13.3454
LeftUpLeg  2.78647 5.72528 4.42888
LeftLeg  0.565452 9.58359 -3.96358
LeftFoot  -2.13406 0.173663 -2.02097
LeftToes  3.81955e-011 1.3492e-010 1.36421e-011
9
root  78.718 40.4238 -1.87175 -158.235 -87.4849 157.854
RightUpLeg  1.83748 -9.25873 -8.65771
RightLeg  2.37855 -2.84476 2.91693
RightFoot  -1.63525 -0.173399 1.9181
RightToes  5.82063e-011 0 -3.6325e-017
Spine  0.652865 -1.0469 0.198975
Spine1  2.53165 -1.20418 0.556922
HEad  -2.19029 3.67034 -2.47543
LeftShoulder1  1.18147 -2.58573 -12.2343
LeftArm  -15.0046 8.0432 3.68324
LeftForeArm  12.1668 -3.09723 -2.74092
LeftHand  -0.244104 0.0205437 5.32207
RightShoulder  0.477131 -0.586614 8.9567
RightArm  -22.5907 5.84261 -2.24123
RightForeArm  1.5818 0.717739 3.15675
RightHand  -0.852973 2.19686 -13.214
LeftUpLeg  2.77116 5.72524 4.39025
LeftLeg  0.683091 9.59886 -3.95762
LeftFoot  -2.20114 0.16716 -1.91985
LeftToes  3.81955e-011 1.3492e-010 1.36421e-011
10
root  78.7251 40.4199 -1.84939 -159.225 -87.4553 158.867
RightUpLeg  1.79146 -9.33265 -8.7039
RightLeg  2.40492 -2.7366 3.00011
RightFoot  -1.64793 -0.174087 1.92878
RightToes  5.82063e-011 0 -3.6325e-017
Spine  0.907318 -1.00807 -0.00857857
Spine1  2.30789 -1.26548 1.0637
HEad  -2.43604 3.01716 -2.79657
LeftShoulder1  1.1394 -2.27944 -12.5543
LeftArm  -16.5399 8.6481 2.31705
LeftForeArm  13.4731 -4.86063 -2.28392
LeftHand  -0.244104 0.0205437 5.32207
RightShoulder  0.486833 -0.58127 9.29755
RightArm  -23.4592 5.44469 -1.89403
RightForeArm  0.539104 2.01402 3.10839
RightHand  -0.973697 2.70997 -14.1009
LeftUpLeg  2.6786 5.7522 4.39672
LeftLeg  0.816126 9.61987 -3.95704
LeftFoot  -2.26311 0.163403 -1.86144
LeftToes  3.81955e-011 1.3492e-010 1.36421e-011
11
root  78.7359 40.4181 -1.83742 -159.969 -87.4211 159.659
RightUpLeg  1.7023 -9.36016 -8.70775
RightLeg  2.43757 -2.68305 3.03683
RightFoot  -1.66104 -0.173929 1.92633
RightToes  5.82063e-011 0 -3.6325e-017
Spine  1.03547 -0.970953 -0.116759
Spine1  2.27168 -1.28605 1.3416
HEad  -2.79821 2.3217 -3.01578
LeftShoulder1  1.12243 -2.11527 -12.8498
LeftArm  -17.6304 9.79235 0.0704009
LeftForeArm  16.3227 -7.825 -2.14837
LeftHand  -0.244104 0.0205437 5.32207
RightShoulder  0.50819 -0.585035 10.1394
RightArm  -24.3352 4.55618 -0.830177
RightForeArm  -3.91331 4.52768 3.45696
RightHand  -1.25776 3.5153 -16.5229
LeftUpLeg  2.57696 5.7772 4.40861
LeftLeg  0.89757 9.64576 -3.96192
LeftFoot  -2.29757 0.16423 -1.8743
LeftToes  3.81955e-011 1.3492e-010 1.36421e-011
12
root  78.7441 40.4186 -1.83155 -159.52 -87.4155 159.228
RightUpLeg  1.6477 -9.38078 -8.73543
RightLeg  2.47455 -2.66074 3.04029
RightFoot  -1.65793 -0.173515 1.91991
RightToes  5.82063e-011 0 -3.6325e-017
Spine  0.879144 -1.0585 0.0223623
Spine1  2.70945 -1.33805 1.10609
HEad  -3.25531 2.53702 -2.93677
LeftShoulder1  1.17144 -2.24655 -13.291
LeftArm  -18.3319 11.7457 -2.67942
LeftForeArm  21.7803 -11.9921 -2.18523
LeftHand  -0.244104 0.0205437 5.32207
RightShoulder  0.601311 -0.29641 11.6078
RightArm  -24.7105 3.09245 1.05972
RightForeArm  -10.1519 8.20783 4.23684
RightHand  -1.57112 4.01189 -19.5043
LeftUpLeg  2.5503 5.75646 4.37013
LeftLeg  0.880222 9.67147 -3.95954
LeftFoot  -2.30251 0.166159 -1.90428
LeftToes  3.81955e-011 1.3492e-010 1.36421e-011
13
root  78.7478 40.4205 -1.82606 -158.121 -87.4464 157.834
RightUpLeg  1.64039 -9.43997 -8.81291
RightLeg  2.48354 -2.63995 3.06531
RightFoot  -1.62256 -0.173406 1.91822
RightToes  5.82063e-011 0 -3.6325e-017
Spine  0.479326 -1.25974 0.264531
Spine1  3.56898 -1.47785 0.716844
HEad  -3.92914 3.35838 -2.93736
LeftShoulder1  1.3382 -2.65943 -14.7595
LeftArm  -18.2553 14.2253 -5.55982
LeftForeArm  25.2332 -17.1801 -2.68677
LeftHand  -0.244104 0.0205437 5.32207
RightShoulder  0.847088 0.59609 13.7059
RightArm  -23.8334 1.01111 3.32729
RightForeArm  -13.9682 12.711 5.03951
RightHand  -1.70509 4.02401 -21.0829
LeftUpLeg  2.59219 5.68254 4.28291
LeftLeg  0.742154 9.69185 -3.94962
LeftFoot  -2.24409 0.167496 -1.92507
LeftToes  3.81955e-011 1.3492e-010 1.36421e-011
